<svg xmlns="http://www.w3.org/2000/svg" viewBox="0 0 1800 1000" role="img" aria-label="A quiet castle and meadow in Limbo">
  <defs>
    <linearGradient id="bg" x1="0" x2="1" y1="0" y2="1">
      <stop offset="0" stop-color="#07090b"/>
      <stop offset=".55" stop-color="#111814"/>
      <stop offset="1" stop-color="#263326"/>
    </linearGradient>
    <radialGradient id="light" cx="48%" cy="37%" r="40%">
      <stop offset="0" stop-color="#d7a84f" stop-opacity=".6"/>
      <stop offset=".45" stop-color="#495d4a" stop-opacity=".28"/>
      <stop offset="1" stop-color="#050608" stop-opacity="0"/>
    </radialGradient>
  </defs>
  <rect width="1800" height="1000" fill="url(#bg)"/>
  <rect width="1800" height="1000" fill="url(#light)"/>
  <path d="M0 735 C300 650 580 720 900 650 C1230 578 1460 620 1800 570 L1800 1000 L0 1000 Z" fill="#0a0d0b"/>
  <path d="M600 680 L600 410 L720 410 L720 330 L810 330 L810 410 L920 410 L920 300 L1000 300 L1000 410 L1115 410 L1115 350 L1200 350 L1200 680 Z" fill="#12151a"/>
  <path d="M642 680 L642 460 L1160 460 L1160 680 Z" fill="#1a1e24"/>
  <path d="M720 680 L720 540 C720 492 760 462 812 462 C864 462 904 492 904 540 L904 680 Z" fill="#08090a"/>
  <path d="M976 680 L976 540 C976 492 1016 462 1068 462 C1120 462 1160 492 1160 540 L1160 680 Z" fill="#08090a" opacity=".68"/>
  <path d="M560 704 C660 760 1130 760 1240 704" fill="none" stroke="#d7a84f" stroke-width="5" opacity=".46"/>
  <g fill="#07080a" opacity=".92">
    <circle cx="470" cy="720" r="16"/><path d="M454 870 C458 790 466 750 470 720 C482 758 490 800 494 870 Z"/>
    <circle cx="1320" cy="690" r="16"/><path d="M1302 870 C1308 790 1316 738 1320 690 C1332 760 1340 802 1344 870 Z"/>
    <circle cx="1400" cy="735" r="12"/><path d="M1388 875 C1392 805 1398 760 1400 735 C1410 790 1416 820 1420 875 Z"/>
  </g>
  <path d="M0 850 C370 795 650 830 930 805 C1220 780 1465 810 1800 760 L1800 1000 L0 1000 Z" fill="#050607" opacity=".72"/>
</svg>
