<svg xmlns="http://www.w3.org/2000/svg" viewBox="0 0 1800 1000" role="img" aria-label="A dark storm carrying two souls through the air">
  <defs>
    <linearGradient id="bg" x1="0" x2="1" y1="0" y2="1">
      <stop offset="0" stop-color="#050608"/>
      <stop offset=".5" stop-color="#151421"/>
      <stop offset="1" stop-color="#2d1020"/>
    </linearGradient>
    <radialGradient id="glow" cx="62%" cy="42%" r="42%">
      <stop offset="0" stop-color="#b6533b" stop-opacity=".52"/>
      <stop offset=".42" stop-color="#5f4b76" stop-opacity=".28"/>
      <stop offset="1" stop-color="#050608" stop-opacity="0"/>
    </radialGradient>
    <filter id="blur"><feGaussianBlur stdDeviation="5"/></filter>
  </defs>
  <rect width="1800" height="1000" fill="url(#bg)"/>
  <rect width="1800" height="1000" fill="url(#glow)"/>
  <g fill="none" stroke-linecap="round" opacity=".55">
    <path d="M120 330 C420 210 660 420 930 310 C1180 210 1390 260 1680 170" stroke="#5f6b78" stroke-width="8"/>
    <path d="M60 500 C380 350 640 590 950 455 C1210 340 1450 430 1760 290" stroke="#d7a84f" stroke-width="4" opacity=".35"/>
    <path d="M180 665 C520 520 750 735 1060 620 C1320 522 1530 610 1780 500" stroke="#73546e" stroke-width="10"/>
    <path d="M330 205 C570 120 720 260 980 180" stroke="#ffffff" stroke-width="3" opacity=".22"/>
  </g>
  <g fill="#07080a">
    <path d="M820 555 C860 500 914 504 948 552 C910 580 858 582 820 555 Z"/>
    <path d="M862 510 C850 470 862 438 895 420 C925 450 925 486 906 516 Z"/>
    <path d="M980 560 C1022 508 1080 516 1110 568 C1066 594 1015 592 980 560 Z" opacity=".9"/>
    <path d="M1026 514 C1014 474 1027 445 1060 426 C1088 458 1086 492 1068 520 Z" opacity=".9"/>
  </g>
  <g filter="url(#blur)" opacity=".65">
    <ellipse cx="895" cy="555" rx="120" ry="28" fill="#d7a84f"/>
    <ellipse cx="1038" cy="565" rx="116" ry="26" fill="#b6533b"/>
  </g>
  <path d="M0 830 C260 780 520 850 850 805 C1120 770 1450 815 1800 760 L1800 1000 L0 1000 Z" fill="#050607" opacity=".86"/>
</svg>
